<svg width="31" height="31" viewBox="0 0 31 31" fill="none" xmlns="http://www.w3.org/2000/svg">
<path fill-rule="evenodd" clip-rule="evenodd" d="M22.9516 13.546C22.3 11.1279 20.3925 9.225 17.9718 8.57979C21.8142 9.09434 25.2479 10.9 27.8221 13.546H28.4143C25.2493 10.1347 20.7275 8 15.7072 8C10.6868 8 6.16501 10.1347 3 13.546H3.59222C6.49771 10.5595 10.498 8.64359 14.9451 8.44624C12.2387 8.91466 10.0618 10.9285 9.35642 13.546H9.8734C10.6671 10.8269 13.1786 8.84048 16.154 8.84048C19.1294 8.84048 21.6409 10.8269 22.4346 13.546H22.9516Z" fill="#FA6800"/>
<path fill-rule="evenodd" clip-rule="evenodd" d="M3.96003 18.7971H3.36792C6.51134 22.0077 10.8942 24 15.7423 24C15.8094 24 15.8764 23.9996 15.9434 23.9989C15.986 23.9996 16.0287 24 16.0715 24C16.2658 24 16.4581 23.9921 16.6484 23.9767C21.1351 23.7454 25.1703 21.8064 28.1167 18.7971H27.5246C25.2998 20.9614 22.4808 22.5181 19.3356 23.1991C21.0537 22.2984 22.3538 20.7087 22.869 18.7971H22.3605C21.5665 21.5206 19.0514 23.5104 16.0715 23.5104C13.0917 23.5104 10.5766 21.5206 9.78255 18.7971H9.27399C9.82856 20.8546 11.2924 22.5392 13.208 23.3932C9.63695 22.8561 6.43181 21.2016 3.96003 18.7971Z" fill="#125285" fill-opacity="0.16"/>
</svg>
